<?xml version="1.0" encoding="UTF-8" standalone="no"?>
<!-- Created with Inkscape (http://www.inkscape.org/) -->

<svg
   version="1.1"
   id="svg1"
   width="793.33331"
   height="1121.3333"
   viewBox="0 0 793.33331 1121.3333"
   sodipodi:docname="coran_mameluco_egipto.svg"
   inkscape:version="1.4.3 (0d15f75, 2025-12-25)"
   xmlns:inkscape="http://www.inkscape.org/namespaces/inkscape"
   xmlns:sodipodi="http://sodipodi.sourceforge.net/DTD/sodipodi-0.dtd"
   xmlns="http://www.w3.org/2000/svg"
   xmlns:svg="http://www.w3.org/2000/svg">
  <defs
     id="defs1" />
  <sodipodi:namedview
     id="namedview1"
     pagecolor="#ffffff"
     bordercolor="#000000"
     borderopacity="0.25"
     inkscape:showpageshadow="2"
     inkscape:pageopacity="0.0"
     inkscape:pagecheckerboard="0"
     inkscape:deskcolor="#d1d1d1"
     inkscape:zoom="1.0407254"
     inkscape:cx="396.83857"
     inkscape:cy="560.18617"
     inkscape:window-width="1833"
     inkscape:window-height="1336"
     inkscape:window-x="688"
     inkscape:window-y="17"
     inkscape:window-maximized="0"
     inkscape:current-layer="g1">
    <inkscape:page
       x="0"
       y="0"
       inkscape:label="1"
       id="page1"
       width="793.33331"
       height="1121.3333"
       margin="0"
       bleed="0" />
  </sodipodi:namedview>
  <g
     id="g1"
     inkscape:groupmode="layer"
     inkscape:label="1">
    <path
       id="path53"
       d="m 8700.9488,14810.601 10.0381,-5.795 -73.1631,-42.233 6.0556,-22.596 -14.1933,14.188 -3.5489,13.25 74.8116,43.186 5.0195,-2.894 m -2.5088,4.342 23.7637,-13.715 -6.4776,-11.22 h 11.585 l 8.6025,14.891 -17.4013,10.044 m 27.4492,-27.444 v -17.193 l -10.0371,-5.796 v 12.954 h -77.3262 l 17.3828,10.035 h 69.9805 v -4.993 m 27.4521,-22.453 -24.9404,-43.192 v -20.069 l 24.9404,43.192 m -80.6875,-14.894 10.0332,17.38 60.6036,34.984 8.6015,-14.892 -5.7949,-10.034 -6.4785,11.218 -66.9649,-38.656 10.0332,17.38 m 0,0 -10.0332,-17.38 m 0.2041,-39.828 -19.3896,5.192 -9.7012,9.702 43.1963,74.801 h 11.5859 l -42.2402,-73.149 16.5488,-16.546 -9.6962,2.598 m 85.33,-25.457 -19.3867,-5.193 -13.2529,3.547 v 86.372 l 10.0351,5.795 v -84.467 l 22.6045,-6.054 -9.6943,-2.599 m 14.5439,-9.088 -33.4277,-8.955 -8.1943,8.192 41.622,11.153 m -58.4111,-15.649 -18.1143,-4.852 -14.0117,-52.283 5.1944,-19.386 17.0127,63.477 18.1132,4.851 -8.1943,8.193 -18.1143,-4.852 m -29.455,-39.033 -17.3819,-10.033 h 18.9717 l 18.5137,-69.061 8.1933,8.194 -19.0039,70.9 h -9.2929 l -8.6905,-5.017 m -74.1982,-59.908 5.4248,-10.033 h 86.7549 l 3.5537,13.249 -5.1924,19.385 -6.0566,-22.601 h -84.4844 l 2.709,-5.016 m -12.3486,31.014 -14.8926,-8.599 34.9902,-60.591 17.3828,-10.033 -38.664,66.951 11.2207,6.476 -10.0371,5.796 -4.2881,-2.479 m -8.1084,-50.851 v -11.586 l 74.8154,-43.185 9.6973,9.697 5.1992,19.387 -16.5498,-16.546 -73.1621,42.233 v -5.796 m 4.6543,33.128 h -17.1963 v -69.967 l 10.0342,-17.377 v 77.311 h 12.9589 l -5.7968,10.033 h -14.6455 m -55.313,-71.272 35.3579,61.228 14.8935,-8.6 v -11.584 l -11.2226,6.476 -38.8877,-67.342 -0.1411,19.822 13.228,22.906 m 19.3242,8.379 -5.7959,-10.035 43.1934,-74.797 13.2558,3.546 14.1895,14.193 -22.5996,-6.056 -42.2432,73.149 -2.8955,-5.017 m 23.1025,-55.064 10.0372,-17.379 v -9.291 l -70.9141,-18.998 -8.1943,8.193 69.0712,18.502 v 18.973 l 5.0176,-8.689 m -8.2324,-24.127 -19.3916,-5.194 63.4912,-17.007 4.8486,-18.113 8.1954,8.194 -4.8487,18.111 -52.2949,14.009 -9.6953,-2.601 m 33.2773,-87.92 -15.707,58.614 13.2578,13.26 -11.1904,2.994 -13.2617,-13.255 16.5068,-61.613 m 3.0859,36.955 3.001,-11.192 18.1143,-4.853 38.2783,38.271 5.1982,19.385 -46.4746,-46.462 -18.1172,4.851 1.501,-5.594 m -113.8945,14 -3.002,-11.193 13.2637,-13.255 61.625,16.504 26.7158,-7.159 -2.9961,11.194 -23.7197,6.358 -58.625,-15.709 -13.2617,13.26 -1.501,-5.594 m 45.3106,148.704 -9.5298,-5.499 0.146,-86.313 13.227,-3.543 19.3848,5.193 -22.6309,6.066 -0.5971,84.096 -4.9986,-2.887 m -85.479,-56.812 69.0718,-18.503 9.3032,16.11 0.1309,-18.638 -4.5972,-9.155 -70.9077,18.993 -3.001,11.193 17.3819,-4.656 m 41.4438,-23.697 -18.853,4.662 46.4721,-46.468 -4.852,-18.112 11.1938,3 4.8531,18.111 -38.814,38.807 -9.1577,2.063 m -21.6514,-78.251 5.1934,-19.384 17.0107,63.473 18.1153,4.851 -8.1944,8.193 -18.1147,-4.85 -14.0103,-52.283 2.5991,-9.693 m -9.0927,-14.538 -7.3614,27.474 -18.6928,0.13 17.1718,9.914 9.2344,-0.07 10.041,-37.452 m -95.56,6.519 8.7817,-5.067 74.813,43.179 -3.3618,12.543 -14.3819,14.901 6.0557,-22.6 -73.1611,-42.235 5.018,-2.895 m -28.6938,16.563 2.7549,4.768 11.541,-0.08 -6.8599,-11.875 23.7661,-13.717 m -28.4492,25.674 -9.0278,-15.627 17.4077,-10.051 m -54.9038,49.875 9.1279,-15.807 15.8111,9.127 v -17.366 l 18.6982,-0.13 -9.5654,-16.571 15.812,-9.126 m 30.8032,89.854 -66.9648,-38.657 -6.4781,11.218 -5.7959,-10.033 8.6006,-14.892 60.6021,34.985 10.0361,17.379 -40.6899,-23.49 m -2.5103,-15.93 -10.0356,-5.795 v -16.32 l 70.623,-0.502 17.1709,9.915 -77.7583,0.55 v 12.152 l -5.0176,-2.895 m 74.292,57.364 -10.0361,-17.377 16.4341,9.487 50.561,-50.557 3.001,11.193 -51.9111,51.904 -8.0489,-4.65 -5.018,-8.688 m -1.8721,28.271 -19.3901,5.194 16.5488,-16.541 -41.8486,-72.477 11.54,-0.08 42.8486,74.207 -9.6987,9.697 -9.6953,2.6 m -45.5327,25.182 -4.647,-8.047 v -20.069 l 9.4888,16.432 69.0683,-18.505 -2.997,11.19 -70.9131,18.999 -4.647,-8.047 m -15.7612,13.515 -19.3897,-5.193 22.6069,-6.057 v -84.464 l 10.0347,5.794 v 86.367 l -13.2519,3.553 -9.6939,-2.6 m 120.0122,-83.063 14.19,-14.187 3.5527,-13.25 m -42.3501,119.257 14.1904,-14.19 16.8159,-62.742 -14.1923,14.188 -16.814,62.744 7.0952,-7.097 m 63.2061,21.58 60.603,34.985 8.6011,-14.891 -5.7964,-10.033 -6.4776,11.216 -66.9663,-38.656 10.0362,17.379 29.978,17.306 m -25.7031,15.18 h 11.5859 l -42.2368,-73.147 16.5449,-16.546 -19.3891,5.197 -9.6998,9.698 43.1949,74.798 h 5.7949 m -153.356,-0.513 -11.1938,-2.999 -4.853,-18.113 38.2768,-38.27 19.3892,-5.195 -46.4712,46.465 4.852,18.112 -11.1938,-2.999 m -25.7671,-43.122 33.4238,8.955 8.1953,-8.194 -41.6191,-11.152 m 85.3418,92.166 -17.0107,-63.469 -18.1153,-4.855 8.1944,-8.193 18.1147,4.856 14.0103,52.276 -5.1934,19.385 -5.8008,-21.651 m 7.6362,-19.958 -3.0014,-11.194 51.9111,-51.902 8.0503,4.646 10.0347,17.378 -16.4341,-9.48 -50.5606,50.552 -1.5,-5.595 m 67.792,24.606 -17.3823,-10.033 h 76.5239 l 0.096,-13.36 9.9898,5.768 -0.126,17.625 h -69.1016 l -8.6914,-5.016 m 7.2764,57.398 h -19.8262 l 67.0591,-39.348 -4.626,-10.525 h 10.1411 l 8.1587,14.132 -60.9067,35.741 h -9.915 m 30.351,-26.534 -73.8901,-43.034 4.6357,-14.334 13.107,-13.106 -6.0508,22.596 72.4849,41.844 -9.9561,5.84 -40.0937,-23.145 m -46.8492,66.548 -8.1938,-8.191 19.0029,-70.902 h 9.293 l 17.3828,10.034 h -18.978 l -18.5069,69.059 -8.1938,-8.191 m -77.6841,-70.838 61.626,16.51 13.2578,-13.259 -2.9956,-11.195 -13.2622,13.26 -58.626,-15.709 m 0,95.617 23.7202,-6.357 3.001,-11.187 -26.7212,7.154 m 34.1748,37.454 -13.2617,-13.26 16.5141,-61.608 -7.1601,-26.716 11.1938,3.001 6.2383,23.274 -15.5913,59.055 13.2622,13.254 -11.1953,3 -13.2617,-13.26 m 25.5527,25.549 50.562,50.553 -9.4839,16.429 17.3809,-10.033 4.648,-8.048 -51.9107,-51.901 -11.1963,3 12.7261,12.724 m -34.957,-9.364 -19.3897,-5.193 63.4878,-17.008 4.8521,-18.112 8.1948,8.195 -4.853,18.11 -52.292,14.008 -9.6939,-2.599 m -15.8398,8.743 28.748,7.701 v 19.897 l 10.0357,-18.09 v -9.502 l -37.4829,-10.045 m 7.2412,96.792 -5.795,-10.034 43.1939,-74.797 13.2529,3.547 14.19,14.192 -22.6011,-6.056 -42.2407,73.148 -2.8951,-5.016 m 5.6998,34.959 14.893,-8.6 v -11.584 l -11.2197,6.477 -13.7192,-23.761 m 0,20.068 10.0459,17.399 14.8931,-8.6 m 19.7099,18.647 5.7959,-10.035 h -12.957 v -77.313 l -10.0347,17.379 v 69.969 h 17.1958 l 2.895,-5.019 m 4.8492,31.015 10.0361,-5.795 -11.2212,-6.475 38.6641,-66.954 -17.3833,10.035 -34.9898,60.589 14.8941,8.6 5.018,-2.894 m 17.562,4.342 43.1998,-24.935 h -20.0718 l -43.1992,24.935 m 97.6679,-4.845 5.1934,-19.387 -3.5484,-13.249 h -86.3886 l -5.7964,10.035 h 84.4834 l 6.0566,22.601 2.5982,-9.694 m 9.0898,14.539 8.958,-33.419 -8.1948,-8.191 -11.1558,41.61 m 53.5249,-25.762 3.001,-11.193 -18.1162,4.857 -46.4761,-46.468 5.1944,19.386 38.2817,38.269 18.1152,-4.851 1.4991,-5.594 m 4.5839,31.356 16.5137,-61.614 -13.2627,-13.254 -11.1953,2.994 13.2632,13.26 -15.7109,58.614 m -39.7251,-154.144 -17.3819,10.035 -4.646,8.048 51.9107,51.9 11.1953,-3 -50.5659,-50.552 9.4878,-16.431 -8.69,5.018 m 91.3862,63.802 -18.6582,-5.389 -53.019,14.204 -4.8579,18.111 8.1938,8.192 4.8579,-18.111 63.4834,-17.007 -9.6953,-2.599 m -196.3608,33.146 v -11.586 l 74.812,-43.185 9.6997,9.697 5.1992,19.387 -16.5488,-16.547 -73.1621,42.234 v -11.586 m 82.106,-52.167 11.1948,3.001 18.998,70.895 -8.0488,4.645 h -20.0723 l 16.4341,-9.482 -18.5058,-69.059 5.5947,1.5 m 60.1172,-126.958 11.8769,6.859 -38.664,66.952 17.3833,-10.034 34.9907,-60.594 -15.6309,-9.023 -9.956,5.84 11.8769,6.859 m -159.1811,23.233 3.0014,-11.193 18.1148,-4.851 38.2759,38.27 5.1992,19.387 -46.4761,-46.465 -18.1152,4.852 1.5,-5.593 m 121.9131,109.565 -14.1919,-14.187 -62.7539,-16.812 14.1909,14.188 62.7549,16.811 -7.0958,-7.094 m -39.2241,-18.3 11.1958,3 -18.5166,-69.084 16.1226,-9.462 h -19.8306 l -7.9643,4.676 18.9931,70.87 5.5948,1.5 m 59.875,-79.552 h -86.3887 l -3.5493,-13.251 5.1943,-19.385 6.0571,22.603 h 84.482 l -5.7954,10.033 h -47.44 m 75.2691,28.885 v -11.585 l -73.1617,42.23 -16.5483,-16.542 5.1992,19.385 9.6987,9.699 74.8121,-43.187 v -5.794 m 38.6152,17.015 -5.8599,-10.151 -42.2412,73.148 -22.6069,-6.054 14.1968,14.187 13.2519,3.552 43.2593,-74.682 -2.9649,-5.133 m 9.1924,80.088 19.3916,5.193 13.252,-3.548 v -86.373 l -10.0371,-5.794 v 84.467 l -22.6065,6.055 9.6963,2.598 m 101.0108,-21.868 3.0019,-11.194 -69.0723,18.503 -9.4882,-16.426 v 20.069 l 4.6455,8.046 70.9131,-18.998 1.5,-5.595 m 15.292,1.096 3,-11.193 70.9091,-18.993 4.6465,8.046 v 20.068 l -9.4824,-16.431 -69.0732,18.503 1.498,-5.594 m -23.8975,40.713 14.1914,-14.189 16.8155,-62.741 -14.1914,14.187 -16.8155,62.743 7.0948,-7.093 m 107.749,-113.389 -11.0264,-2.955 4.4785,18.708 -45.9257,45.916 19.3906,-5.192 37.5986,-37.598 -4.5156,-18.879 -9.4531,-2.533 m 35.5634,6.931 -58.6259,-15.704 -13.2618,13.257 -2.996,-11.189 13.2587,-13.26 61.625,16.506 m -144.1386,67.487 8.0488,4.647 51.9121,-51.9 -3.0019,-11.195 -50.5596,50.557 -16.4365,-9.487 10.0371,17.378 8.0488,4.647 m -45.5361,-69.564 24.9394,43.192 18.5322,10.698 18.2588,-18.259 6.6866,-24.933 -18.5323,-10.698 h -49.8847 l 24.9394,43.192 m -26.7656,-75.938 73.1592,42.234 -6.0567,22.598 14.1973,-14.189 3.5469,-13.249 -74.6973,-43.253 -10.1494,5.859 30.6533,17.695 m -40.415,0 h -11.5869 l -8.6006,-14.889 60.6025,-34.984 h 20.0723 l -66.9658,38.655 6.4785,11.218 h -5.7969 m -76.8315,32.739 v -11.584 l 14.894,-8.6 34.9902,60.589 v 20.07 l -38.6621,-66.953 -11.2221,6.478 v -5.794 m -12.544,62.908 10.0357,-17.379 v -69.966 h -17.1968 l -5.7949,10.034 h 12.956 v 77.311 l 5.0181,-8.689 m 87.2578,-66.114 h 11.5859 l 43.1944,74.8 -9.6983,9.698 -19.3896,5.197 16.5478,-16.546 -42.2402,-73.149 h 5.7959 m -53.3428,22.43 -5.7959,-10.034 8.6016,-14.891 60.6006,34.983 10.038,17.38 -66.9677,-38.656 -6.4766,11.218 -2.8955,-5.017 m 33.1397,-6.966 -10.0372,-5.795 v -17.192 h 69.9805 l 17.3828,10.033 h -77.3261 v 12.954 l -10.0372,-5.795 m 60.4756,-251.829 10.6807,10.677 -2.9248,-10.913 5.9414,-3.426 -6.877,-0.05 -2.9091,-10.87 -3.9112,14.583 10.6807,10.677 m -38.1465,29.075 22.9668,22.963 31.3779,8.408 -8.4043,-31.371 -22.9736,-22.963 -4.8525,18.113 -18.1143,4.85 22.9668,22.963 m -33.0127,-106.375 -6.1582,22.964 18.1201,-4.852 13.2578,13.26 8.4112,-31.372 m -44.2852,39.752 -4.8525,18.113 13.2568,13.259 18.1201,-4.852 4.8516,-18.116 -13.2588,-13.254 -18.1172,4.85 -4.8525,18.113 m 166.1074,-57.865 15.8135,9.126 -9.5664,16.571 18.6924,0.13 v 17.366 l 15.8164,-9.127 9.1298,15.809 m -68.1425,18.255 28.1455,-16.247 v -11.11 l -12.2979,-0.09 -15.8476,27.443 28.1455,-16.247 m 15.0537,8.689 v 32.495 l 16.248,-28.139 -5.9472,-10.301 -10.3008,5.945 v 32.495 m 0,51.494 v -21.393 l 24.9404,-43.192 m 0,71.266 -24.9404,-6.681 v -21.394 m -68.9551,-10.443 18.2598,18.258 24.9395,6.676 10.6992,-18.521 v -49.874 l -43.1992,24.932 -10.6993,18.529 18.2598,18.258 m 75.6357,203.895 -31.3789,-8.404 12.5547,-12.551 -4.5312,-18.926 23.3554,6.258 m -71.1386,-98.56 13.2646,13.258 18.4942,-4.957 4.5273,-17.956 -13.3184,-13.309 -18.1142,4.852 -4.8535,18.112 13.2646,13.258 m 57.874,-49.128 -31.3789,8.404 13.208,13.211 -4.5566,18.094 22.7275,-6.085 m -54.3457,148.989 10.9121,-2.926 3.4366,5.95 v -6.868 l 10.917,-2.924 -14.5889,-3.91 -10.6768,10.678 10.9121,-2.926 m -157.0527,155.189 -6.1582,-22.963 18.1201,4.853 13.2578,-13.261 8.4112,31.371 m -168.0869,0 8.4052,-31.371 13.2627,13.261 18.1143,-4.853 -6.1514,22.963 m -200.4868,-151.241 24.939,6.682 v 21.393 l -24.939,43.191 m 8.6909,15.051 5.9473,10.299 10.3017,-5.945 v -32.495 l -16.249,28.141 5.9473,10.299 m -14.6382,4.752 9.1279,15.808 15.8111,-9.126 v 18.251 h 18.2602 l -9.1274,15.814 15.812,9.127 m -49.8838,-301.253 22.9668,6.156 -4.8516,-18.117 13.2627,-13.255 -31.3779,-8.41 m 0,168.055 31.3779,-8.404 -13.2627,-13.259 4.8516,-18.111 -22.9668,6.151 m 0,-15.582 27.4678,-7.359 7.2412,-27.9 -7.2412,-27.025 -27.4678,-7.357 m 0,-64.789 24.939,-6.681 v -21.394 l -24.939,-43.191 m 29.082,79.057 14.5879,3.909 10.6782,-10.677 -10.915,2.926 -3.437,-5.956 v 6.872 l -10.9141,2.926 14.5879,3.909 m 56.0752,87.471 6.564,25.375 h 20.9599 l 43.064,-25.271 -42.6269,-24.603 h -21.397 l -6.6792,24.935 6.6792,24.939 m -62.0503,-47.901 6.0371,22.525 -6.0371,23.404 18.1152,-4.855 13.2622,13.258 8.4048,-31.371 -8.4048,-31.364 -13.2622,13.252 -18.1152,-4.849 6.0371,22.525 m -21.2139,92.256 10.9141,2.925 v 6.909 l 3.3369,-6.016 11.0151,2.951 -10.6782,-10.678 -14.5879,3.909 10.9141,2.925 m 26.2861,-28.473 -18.1142,4.851 -13.2632,-13.255 4.852,-18.116 18.1211,-4.852 13.2569,13.26 -4.8526,18.112 -18.1142,4.851 m 39.7592,-27.461 10.6778,10.677 -2.9151,-10.872 5.9263,-3.478 h -6.855 l -2.9253,-10.912 -3.9087,14.585 10.6778,10.677 m 212.876,-29.4 -5.9463,-10.301 10.3047,-5.943 28.1445,16.244 h -32.5029 l -5.9463,-10.301 m 196.2636,-49.457 -26.9384,7.214 -6.8438,27.167 6.4443,27.94 27.3379,7.32 m -84.0439,-34.82 8.4053,31.372 13.2617,-13.261 18.501,4.958 -5.5293,-23.114 5.8154,-23.098 -18.7871,5.031 -13.2617,-13.258 -8.2901,30.934 8.2901,31.808 m 4.5,16.786 4.8535,18.112 18.1142,4.85 12.7471,-12.736 -4.4668,-18.665 -17.9834,-4.821 -13.2646,13.26 4.8535,18.112 m -32.3203,-11.934 10.6767,-10.676 -3.9072,-14.585 -2.9268,10.912 h -6.8837 l 5.9677,3.441 -2.9267,10.912 10.6767,-10.676 m -206.6396,119.28 -10.6778,-10.676 10.9136,2.925 3.437,-5.949 v 6.867 l 10.9151,2.925 -14.5879,3.908 -10.6778,-10.676 m 29.4039,-7.704 24.9389,6.682 24.9453,-6.682 v -21.393 l -24.9453,-43.192 -24.9389,43.192 v 21.393 l 24.9389,6.682 m 43.6709,11.698 -14.5849,-3.908 10.9121,-2.925 v -6.867 l 3.4355,5.949 10.916,-2.925 -10.6787,10.676 -14.5849,-3.908 m 75.6328,-35.844 14.5888,-3.909 3.9102,-14.583 -7.9902,7.987 -5.9541,-3.431 3.4365,5.949 -7.9912,7.987 14.5888,-3.909 m 12.2901,12.292 -3.9082,14.583 7.9892,-7.988 5.9561,3.438 -3.4365,-5.956 7.9863,-7.986 -14.5869,3.909 -3.9082,14.583 m 8.4072,-31.371 31.3779,-8.403 22.9678,-22.969 -18.1152,-4.851 -4.8526,-18.111 -22.4511,21.016 -8.9268,33.318 31.3779,-8.403 m 33.543,144.47 15.8135,-9.126 -9.1289,-15.809 h 18.2549 v -18.256 l 15.8164,9.126 9.1298,-15.808 m -51.8945,9.885 h 11.8975 v -11.895 l -28.1455,-16.245 16.248,28.14 h 11.8975 m 15.0537,-20.583 10.3008,5.945 5.9472,-10.299 -16.248,-28.142 v 32.496 l 10.3008,5.945 m 14.6425,-96.615 -24.9404,6.682 v 21.393 l 24.9404,43.191 m -93.8955,-32.748 10.6993,18.526 43.1992,24.936 v -49.873 l -10.6992,-18.524 -24.9395,6.677 -18.2598,18.258 10.6993,18.526 m -54.4932,43.513 18.5322,10.696 h 49.8838 l -24.9453,-43.19 -18.5313,-10.697 -18.2529,18.257 -6.6865,24.934 18.5322,10.696 m 54.2188,31.298 -28.1455,-16.245 h 32.5019 l 5.9434,10.301 -10.2998,5.944 -28.1455,-16.245 m 13.0927,24.935 -43.2002,-24.935 h -21.3974 l -6.6836,24.935 m -310.5298,-69.26 v -48.907 l 10.7978,-19.466 24.8389,6.653 18.2612,18.257 -10.6982,18.527 -43.1997,24.936 v -48.907 m 0,78.179 v -11.895 l 28.146,-16.245 -16.249,28.14 h -11.897 v -11.895 m 14.6387,37.248 10.3022,5.944 28.146,-16.246 h -32.5019 l -5.9463,10.302 10.3022,5.944 m 15.0542,8.691 43.1997,-24.935 h 21.397 l 6.6841,24.935 m -81.9971,-39.988 h 49.8843 l 18.5307,-10.696 -6.685,-24.935 -18.2598,-18.256 -18.5312,10.697 -24.939,43.19 h 49.8843 m -14.4424,-83.2 7.9902,7.987 -3.438,5.95 5.9561,-3.432 7.9888,7.988 -3.9097,-14.583 -14.5874,-3.91 6.1523,6.151 m 16.8179,-29.116 3.9082,14.584 14.5879,3.909 -7.9883,-7.987 3.4322,-5.956 -5.9522,3.437 -7.9878,-7.987 3.9082,14.584 m 4.499,16.787 8.4048,31.371 22.9722,22.963 4.853,-18.112 18.1148,-4.851 -22.9678,-22.968 -31.377,-8.403 8.4048,31.371 m 4.7671,43.423 h 6.875 l 2.9248,10.912 3.9043,-14.584 -10.6792,-10.677 2.9258,10.913 -5.9507,3.436 h 6.875 m 182.6826,-3.67 3.9112,14.584 2.9228,-10.912 h 6.8701 l -5.9482,-3.437 2.9248,-10.912 -10.6807,10.677 3.9112,14.584 m -8.4102,-31.372 -4.8496,-18.112 -18.1172,-4.852 22.9668,-22.967 31.3779,-8.403 -8.4101,31.37 -22.9678,22.964 -4.8496,-18.112 m -38.8174,38.806 18.1172,4.852 13.2588,-13.254 -4.8516,-18.117 -18.1201,-4.852 -13.2568,13.26 4.8525,18.111 18.1172,4.852 m -92.7051,34.9 7.3614,-27.463 27.4687,-7.359 27.4678,7.359 7.3554,27.463 m -57.7929,-44.25 4.8506,-18.11 -13.2569,-13.261 31.3711,-8.404 31.3779,8.404 -13.2607,13.261 4.8555,18.11 -22.9727,-6.155 -22.9648,6.155 4.8506,-18.11 m -53.0186,14.203 13.2627,13.259 18.1152,-4.856 4.8531,-18.11 -13.2642,-13.256 -18.1138,4.851 -4.853,18.112 13.2627,13.259 m 57.873,-166.079 -9.1269,-15.806 -15.812,9.125 v -18.253 h -18.2598 l 9.1279,-15.813 -16.5693,-9.562 16.1221,-9.462 -8.6807,-15.037 h 17.3667 l 0.1309,-18.692 16.5742,9.56 9.1269,-15.806 9.129,15.806 15.8105,-9.125 v 18.257 h 18.2598 l -9.125,15.81 15.0527,8.689 -15.0527,9.562 9.125,15.813 h -18.2598 v 18.253 l -15.8105,-9.125 -9.129,15.806 -9.1269,-15.806 m -181.312,49.345 22.9668,22.963 31.3774,8.409 -8.4053,-31.372 -22.9721,-22.963 -4.853,18.112 -18.1138,4.851 22.9668,22.963 m 36.4692,-30.754 18.2588,18.258 18.5274,-10.697 24.9438,-43.192 h -50.2651 l -18.1597,10.652 6.6948,24.979 18.2588,18.258 m 37.1104,37.099 24.9389,6.684 10.6968,-18.527 v -49.875 l -43.1987,24.94 -10.6983,18.523 18.2613,18.255 24.9389,6.684 m 90.69,-18.526 10.7002,18.527 24.9384,-6.683 18.2608,-18.256 -10.6973,-18.523 -43.2021,-24.94 v 49.875 l 10.7002,18.527 m 29.2959,-137.663 42.9238,24.775 21.6738,0.159 6.6826,-24.934 -6.6826,-24.935 h -21.3965 l -43.2011,24.935 43.2011,24.934 m -83.1972,26.949 28.1455,16.245 -16.2481,-28.142 h -11.8974 v 11.897 l 28.1455,16.245 m -59.4492,-3.203 16.248,28.14 v -32.494 l -10.3018,-5.945 -5.9462,10.299 16.248,28.14 m -49.8813,-32.492 10.3017,-5.945 5.9473,10.299 -16.249,28.14 v -32.494 l 10.3017,-5.945 m -79.2466,-29.691 h 33.3037 l 5.9512,-10.301 -10.939,-6.314 -28.3159,16.615 h 33.3037 m 8.6919,15.05 -16.248,28.143 28.145,-16.245 v -11.898 h -11.897 l -16.248,28.143 m 33.311,-318.98 7.3614,27.463 27.4687,7.359 27.4678,-7.359 7.3554,-27.463 m 122.292,25.34 32.834,0.235 6.3106,-10.936 -10.2998,-5.949 -28.8448,16.65 32.834,0.235 m -90.3232,-25.575 6.6943,24.981 21.0557,0.144 43.5312,-25.125 m -57.6982,50.686 6.6865,24.933 18.2529,18.257 18.5313,-10.696 24.6142,-42.614 -49.9345,-0.357 -18.1504,10.477 6.6865,24.933 m 11.6973,43.662 14.5869,3.909 -7.9863,-7.988 3.4365,-5.956 -5.9561,3.437 -7.9892,-7.987 3.9082,14.585 14.5869,3.909 m -212.4634,-56.919 18.1148,4.85 13.2631,-13.253 -4.853,-18.117 -18.1201,-4.852 -13.2578,13.258 4.853,18.114 18.1148,4.85 m 16.791,4.499 31.3759,8.406 31.377,-8.406 -13.2598,-13.259 4.8496,-18.111 -22.9668,6.155 -22.9707,-6.155 4.857,18.111 -13.2622,13.259 31.3759,8.406 m 149.2647,126.836 h 6.876 l 2.9267,10.913 3.9014,-14.585 -10.6768,-10.676 2.9268,10.912 -4.8535,3.436 h 5.7754 m -51.4248,-83.199 7.9912,7.985 -3.4365,5.952 5.9541,-3.432 7.9902,7.986 -3.9102,-14.583 -14.5888,-3.908 7.9912,7.985 m -83.624,-43.83 10.9121,2.925 v 6.874 l 3.4384,-5.957 10.9131,2.927 -10.6758,-10.677 -14.5878,3.908 10.9121,2.925 m -94.3409,3.844 10.9136,-2.925 2.8863,5.002 0.5917,-5.93 10.8741,-2.916 -14.5879,-3.908 -10.6778,10.677 10.9136,-2.925 m -119.5386,111.53 3.9087,14.583 2.9253,-10.912 h 6.8697 l -5.9507,-3.435 2.9248,-10.914 -10.6778,10.678 3.9087,14.583 m 39.7593,-90.205 -3.9092,14.584 7.9878,-7.986 5.9571,3.437 -3.4371,-5.957 7.9883,-7.985 -14.5869,3.907 -3.9092,14.584 m 8.4082,-31.371 31.377,-8.403 22.9678,-22.969 -18.1148,-4.849 -4.853,-18.114 -22.9722,22.963 -8.4048,31.372 31.377,-8.403 m -58.2002,2.869 3.437,5.951 -7.9888,7.987 14.587,-3.904 3.9038,-14.584 -7.9888,7.987 -5.9502,-3.437 3.437,5.951 m 36.5708,-75.204 5.9424,3.426 -2.9253,10.914 10.6782,-10.678 -3.9092,-14.579 -2.915,10.866 -6.8711,0.05 5.9424,3.426 m -75.23,-43.422 43.5308,25.125 21.0551,-0.144 6.6949,-24.981 m -96.6372,14.638 6.312,10.936 32.833,-0.235 -28.8428,-16.646 -10.3022,5.945 6.312,10.936 m -20.9507,15.2 v 11.107 l 28.146,16.25 -15.8482,-27.443 -12.2978,0.09 v 11.107 m 0,17.38 v 49.876 l 10.6977,18.526 24.939,-6.681 18.2612,-18.258 -10.6982,-18.529 -43.1997,-24.934 v 49.876 m 29.6099,-78.574 24.6079,42.62 18.5312,10.696 18.2608,-18.257 6.685,-24.939 -18.1499,-10.477 -49.935,0.357 24.6079,42.62 m 91.0493,158.575 -27.4473,-15.844 h 32.501 l 5.5542,9.617 -10.6079,6.227 -25.2852,-14.594 m 39.0288,-16.302 h 11.1104 l 0.09,-12.296 -27.4482,-15.843 16.248,28.139 h 11.1104 m 15.2036,-20.95 10.9404,6.312 5.9449,-10.3 -16.649,-28.839 -0.2363,32.827 10.9404,6.312 m 29.2774,0 -5.9473,-10.3 16.249,-28.141 v 32.495 l -10.3017,5.946 -5.9473,-10.3 m 31.3018,24.936 h 11.8974 l 16.2481,-28.139 -28.1455,16.244 v 11.895 h 11.8974 m 2.7442,25.351 10.3017,5.947 28.1446,-16.246 h -32.502 l -5.9443,10.299 10.3017,5.947 m 4.336,-31.298 h 49.8847 l 18.5323,-10.695 -6.6866,-24.935 -18.2588,-18.256 -18.5322,10.696 -24.9394,43.19 h 49.8847 m -79.164,-79.145 v 49.873 l 43.2021,-24.938 10.6973,-18.525 -18.2608,-18.257 -24.9384,-6.681 -10.7002,18.528 v 49.873 m -65.127,-54.238 25.1289,43.523 24.9453,-43.191 v -21.393 l -24.9453,-6.682 -24.978,6.693 -0.1509,21.05 25.1289,43.523 m -211.1352,40.224 18.1152,4.85 13.2622,-13.255 -4.852,-18.115 -18.1202,-4.852 -13.2568,13.26 4.8516,18.112 18.1152,4.85 m 2.584,-48.51 18.1138,4.851 4.853,18.112 22.9721,-22.963 8.4053,-31.373 -31.3774,8.41 -22.9668,22.963 18.1138,4.851 m 41.3222,2.941 -6.685,24.934 18.5322,10.696 h 49.8828 l -24.9438,-43.192 -18.5274,-10.695 -18.2588,18.257 -6.685,24.934 m 43.7949,-62.039 10.6982,18.529 42.627,24.603 0.352,-49.926 -10.478,-18.139 -24.939,6.677 -18.2602,18.256 10.6982,18.529 m -167.7031,345.045 v -501.7 h 501.7983 v 501.7 h -501.7983 v -64.924"
       style="fill:none;stroke:#231f20;stroke-width:1;stroke-linecap:butt;stroke-linejoin:miter;stroke-miterlimit:10;stroke-dasharray:none;stroke-opacity:1"
       transform="matrix(1.3333333,0,0,-1.3333333,-10975.221,19950.814)" />
    <path
       id="path54"
       d="m 8611.7115,14754.4 2.998,11.193 50.5645,-50.555 16.4336,9.486 -9.0889,-16.832 -8.9981,-5.192 -51.9091,51.9 2.998,11.193 m 126.2344,-293.96 8.4062,-2.251 -10.914,-2.927 v -6.868 l -3.4366,5.952 -10.915,-2.925 10.6797,10.676 m -10.6768,-10.676 10.6768,10.677 14.5889,-3.909 -8.4063,-2.254 m -464.312,-81.821 24.939,43.193 v -20.068 l -24.939,-43.192 m 501.7983,148.152 -23.4316,6.277 -2.8086,11.143 26.2402,-7.028 m -30.0937,64.175 -11.0254,-2.954 -5.5996,-24.243 14.6475,-58.14 -13.2979,-13.296 11.1973,-2.995 13.2207,13.219 -15.4209,61.212 6.2783,27.197 -5.5156,-1.475 m -64.8311,-85 38.8154,38.806 18.7413,-5.023 2.8056,-11.137 -18.5459,4.966 -46.4795,-46.462 4.6631,18.85 11.9609,11.96 m 5.0508,-12.693 -22.9677,-22.96 -8.4102,-31.373 31.3779,8.404 22.9678,22.969 -18.1152,4.849 -4.8526,18.111 -11.2158,-11.211 m -12.0059,31.671 h -20.0732 l 16.4336,-9.487 -18.5059,-69.053 11.1895,2.994 19.0039,70.901 -8.0479,4.645 h -10.038 m 111.8388,-45.336 -19.3867,-5.194 -52.2891,14.007 -5.4589,17.511 8.7949,8.796 4.8594,-18.114 63.4804,-17.006 -9.6943,-2.599 m 14.5439,1.301 -37.4863,-10.044 v -9.292 l 10.0371,-17.38 v 18.975 l 27.4492,7.35 m -204.4336,-66.676 50.5606,50.551 -9.4824,16.431 17.3818,-10.035 4.6455,-8.046 -51.9082,-51.902 -11.1973,3.001 1.2989,1.299 m 145.4726,78.23 11.1973,-3.001 -50.5674,-50.551 9.4893,-16.431 -17.3828,10.034 -4.6455,8.048 51.9091,51.901 5.5967,-1.501 m 50.6162,-87.72 -5.7949,-10.035 -42.2432,73.148 -22.5986,-6.056 14.1885,14.194 13.2519,3.547 43.1963,-74.798 -2.8955,-5.018 m 4.3447,2.507 -13.7197,-23.759 -11.2207,6.475 v -11.581 l 14.8916,-8.601 10.0488,17.399 m -149.7285,69.224 -14.1933,-14.187 62.7509,16.806 14.1934,14.194 -62.751,-16.813 -7.0986,-7.094 m 23.5322,-1.489 11.1924,2.999 -18.5068,-69.056 16.1142,-9.302 -19.8261,-0.142 -7.9786,4.6 19.0049,70.901 5.5928,1.501 m 87.7051,-50.669 v -11.584 l -73.1621,42.228 -16.5479,-16.538 5.1973,19.384 9.7002,9.699 74.8125,-43.189 v -5.793 m -10.8565,-22.383 13.3643,0.09 v 76.509 l 10.0351,-17.378 v -69.095 l -17.6279,-0.125 -5.7715,9.994 8.2051,0.06 m -19.7832,-31.007 11.2217,6.478 -38.6621,66.951 17.3808,-10.033 34.9912,-60.59 -14.8935,-8.6 -10.0381,5.794 11.2217,6.478 m -23.7637,-13.719 -43.5928,25.165 19.8262,0.142 43.8389,-25.307 m -102.8653,24.231 3.543,13.219 86.0586,0.614 5.7695,-9.99 -84.1103,-0.601 -6.0654,-22.626 -5.1954,19.384 3.543,13.219 m -10.0381,-37.45 -8.9531,33.418 8.1934,8.194 11.1543,-41.612 m -144.8482,0 6.3579,23.716 11.19,2.999 -7.1558,-26.715 m -4.0361,23.716 -6.3579,-23.716 m -14.5562,18.112 18.1152,4.852 -6.1533,-22.964 m -33.6308,0 8.4052,31.372 13.2627,-13.26 18.1143,4.852 -5.6304,-21.016 m -192.3169,62.978 16.249,28.14 v -32.495 l -10.3017,-5.945 -5.9473,10.3 16.249,28.14 m 259.3829,330.965 8.1953,-8.191 -69.0723,-18.504 v -18.975 l -9.4849,16.432 -0.5507,0.948 v 9.291 l 70.9126,18.999 4.0976,-4.093 m -0.5605,41.26 -11.1953,-3 -4.8536,-18.111 38.2793,-38.269 19.3877,-5.198 -46.4697,46.467 4.8516,18.111 -5.5948,-1.5 m 16.4502,42.002 -6.3574,-23.714 -11.1904,-3 7.1533,26.714 m 37.4609,-34.168 -2.999,-11.192 -13.2558,13.259 -58.626,-15.703 -23.7188,6.351 -3.0009,11.194 26.7197,-7.161 61.6211,16.513 13.2597,-13.261 -1.497,-5.593 m 11.957,34.916 5.1934,-19.387 -14.0098,-52.276 -18.1172,-4.856 -8.1953,8.191 18.1172,4.857 17.0117,63.471 2.5977,-9.694 m 9.0888,14.539 7.3545,-27.443 h 18.9766 l -17.3848,-10.034 h -9.29 l -10.0479,37.477"
       style="fill:none;stroke:#231f20;stroke-width:1;stroke-linecap:butt;stroke-linejoin:miter;stroke-miterlimit:10;stroke-dasharray:none;stroke-opacity:1"
       transform="matrix(1.3333333,0,0,-1.3333333,-10975.221,19950.814)" />
  </g>
</svg>
